<svg width="18" height="18" viewBox="0 0 18 18" fill="none" xmlns="http://www.w3.org/2000/svg">
<path d="M3.15643 9.75L14.8436 9.75C15.3442 9.75 15.75 9.43436 15.75 9.045L15.75 8.955C15.75 8.56564 15.3442 8.25 14.8436 8.25L3.15643 8.25C2.65582 8.25 2.25 8.56564 2.25 8.955L2.25 9.045C2.25 9.43436 2.65582 9.75 3.15643 9.75Z" fill="#444444"/>
<path d="M2.955 6L15.045 6C15.4344 6 15.75 5.68436 15.75 5.295L15.75 5.205C15.75 4.81564 15.4344 4.5 15.045 4.5L2.955 4.5C2.56564 4.5 2.25 4.81564 2.25 5.205L2.25 5.295C2.25 5.68436 2.56564 6 2.955 6Z" fill="#444444"/>
<path d="M2.955 13.5L15.045 13.5C15.4344 13.5 15.75 13.1844 15.75 12.795L15.75 12.705C15.75 12.3156 15.4344 12 15.045 12L2.955 12C2.56564 12 2.25 12.3156 2.25 12.705L2.25 12.795C2.25 13.1844 2.56564 13.5 2.955 13.5Z" fill="#444444"/>
</svg>
